<?xml version="1.0" encoding="UTF-8"?>
<svg width="800" height="600" viewBox="0 0 800 600" fill="none" xmlns="http://www.w3.org/2000/svg">
  <!-- Background Elements -->
  <path d="M600 100C680 140 750 200 780 300C810 400 800 500 750 550C700 600 600 600 500 580C400 560 300 520 200 450C100 380 50 280 50 200C50 120 100 80 200 60C300 40 400 20 500 40C600 60 650 90 600 100Z" fill="#EEF2FF" />
  
  <!-- Building/Office -->
  <rect x="200" y="150" width="400" height="350" rx="20" fill="#F3F4F6" stroke="#4F46E5" stroke-width="4"/>
  <rect x="250" y="200" width="100" height="150" rx="10" fill="#E0E7FF"/>
  <rect x="450" y="200" width="100" height="150" rx="10" fill="#E0E7FF"/>
  <rect x="300" y="400" width="200" height="80" rx="10" fill="#4F46E5"/>
  
  <!-- People -->
  <circle cx="350" cy="250" r="30" fill="#4F46E5"/>
  <path d="M320 300 L380 300 L350 340 Z" fill="#4F46E5"/>
  
  <circle cx="550" cy="250" r="30" fill="#818CF8"/>
  <path d="M520 300 L580 300 L550 340 Z" fill="#818CF8"/>
  
  <!-- Device/Screen -->
  <rect x="380" y="200" width="120" height="80" rx="5" fill="white" stroke="#4F46E5" stroke-width="2"/>
  <line x1="400" y1="220" x2="480" y2="220" stroke="#4F46E5" stroke-width="2"/>
  <line x1="400" y1="240" x2="460" y2="240" stroke="#4F46E5" stroke-width="2"/>
  
  <!-- Decorative Elements -->
  <circle cx="150" cy="150" r="20" fill="#C7D2FE"/>
  <circle cx="650" cy="450" r="25" fill="#C7D2FE"/>
  <circle cx="700" cy="200" r="15" fill="#818CF8"/>
  <circle cx="100" cy="400" r="15" fill="#818CF8"/>
</svg>
